<svg width="577" height="97" viewBox="0 0 577 97" fill="none" xmlns="http://www.w3.org/2000/svg">
    <path opacity="0.2" d="M53.375 47.25L30.5 54.875L7.625 47.25L30.5 39.625L53.375 47.25Z" fill="black"/>
    <path d="M53.9716 45.4391L31.0966 37.8141C30.7084 37.6946 30.2933 37.6946 29.9052 37.8141L7.05401 45.4391H7.00636L6.76808 45.5582H6.74425L6.50597 45.7012C6.50597 45.725 6.48214 45.725 6.45831 45.7488L6.26769 45.9156L6.10089 46.1063C6.10089 46.1301 6.07706 46.1301 6.07706 46.1539L5.93409 46.3684C5.93409 46.3922 5.93409 46.3922 5.91026 46.416L5.81495 46.6305L5.74347 46.8926V46.9641C5.71996 47.0574 5.71191 47.154 5.71964 47.25V66.3125C5.71964 66.8181 5.92047 67.3029 6.27797 67.6604C6.63546 68.0179 7.12032 68.2188 7.62589 68.2188C8.13146 68.2188 8.61632 68.0179 8.97381 67.6604C9.3313 67.3029 9.53214 66.8181 9.53214 66.3125V49.8949L17.5384 52.5637C16.0343 54.9713 15.2413 57.755 15.2509 60.5938C15.2518 63.1756 15.9081 65.7149 17.1584 67.9737C18.4087 70.2326 20.212 72.137 22.3993 73.5086C17.8539 75.2281 13.9734 78.3492 11.3192 82.4203C11.0487 82.8481 10.9571 83.3651 11.064 83.8598C11.171 84.3545 11.468 84.7874 11.8911 85.0652C12.0988 85.2028 12.3316 85.2978 12.5762 85.3447C12.8208 85.3917 13.0723 85.3896 13.3161 85.3386C13.5599 85.2876 13.7912 85.1888 13.9965 85.0478C14.2018 84.9068 14.3771 84.7264 14.5122 84.5172C16.2424 81.852 18.6115 79.6617 21.4038 78.1453C24.1962 76.6289 27.3233 75.8345 30.5009 75.8345C33.6784 75.8345 36.8056 76.6289 39.5979 78.1453C42.3903 79.6617 44.7593 81.852 46.4896 84.5172C46.6636 84.7814 46.9006 84.9982 47.1793 85.148C47.458 85.2977 47.7697 85.3757 48.086 85.375C48.4512 85.3789 48.8088 85.2708 49.1107 85.0652C49.5338 84.7874 49.8308 84.3545 49.9377 83.8598C50.0447 83.3651 49.9531 82.8481 49.6825 82.4203C47.0284 78.3492 43.1479 75.2281 38.6025 73.5086C40.7898 72.137 42.5931 70.2326 43.8434 67.9737C45.0937 65.7149 45.75 63.1756 45.7509 60.5938C45.7605 57.755 44.9675 54.9713 43.4634 52.5637L53.9716 49.0609C54.353 48.9356 54.685 48.693 54.9205 48.3679C55.1559 48.0427 55.2826 47.6515 55.2826 47.25C55.2826 46.8486 55.1559 46.4574 54.9205 46.1322C54.685 45.807 54.353 45.5644 53.9716 45.4391ZM41.9384 60.5938C41.9384 63.6272 40.7334 66.5363 38.5884 68.6813C36.4435 70.8262 33.5343 72.0313 30.5009 72.0313C27.4675 72.0313 24.5583 70.8262 22.4134 68.6813C20.2684 66.5363 19.0634 63.6272 19.0634 60.5938C19.068 58.1531 19.8436 55.7763 21.2794 53.8027L29.9052 56.6859C30.2921 56.8132 30.7097 56.8132 31.0966 56.6859L39.7224 53.8027C41.1582 55.7763 41.9338 58.1531 41.9384 60.5938ZM39.7224 49.7996H39.6985L30.5009 52.8734L21.3032 49.7996H21.2794L13.6544 47.25L30.5009 41.6266L47.3474 47.25L39.7224 49.7996Z" fill="black"/>
    <path opacity="0.2" d="M553.375 51.25L530.5 58.875L507.625 51.25L530.5 43.625L553.375 51.25Z" fill="black"/>
    <path d="M553.972 49.4391L531.097 41.8141C530.708 41.6946 530.293 41.6946 529.905 41.8141L507.054 49.4391H507.006L506.768 49.5582H506.744L506.506 49.7012C506.506 49.725 506.482 49.725 506.458 49.7488L506.268 49.9156L506.101 50.1063C506.101 50.1301 506.077 50.1301 506.077 50.1539L505.934 50.3684C505.934 50.3922 505.934 50.3922 505.91 50.416L505.815 50.6305L505.743 50.8926V50.9641C505.72 51.0574 505.712 51.154 505.72 51.25V70.3125C505.72 70.8181 505.92 71.3029 506.278 71.6604C506.635 72.0179 507.12 72.2188 507.626 72.2188C508.131 72.2188 508.616 72.0179 508.974 71.6604C509.331 71.3029 509.532 70.8181 509.532 70.3125V53.8949L517.538 56.5637C516.034 58.9713 515.241 61.755 515.251 64.5938C515.252 67.1756 515.908 69.7149 517.158 71.9737C518.409 74.2326 520.212 76.137 522.399 77.5086C517.854 79.2281 513.973 82.3492 511.319 86.4203C511.049 86.8481 510.957 87.3651 511.064 87.8598C511.171 88.3545 511.468 88.7874 511.891 89.0652C512.099 89.2028 512.332 89.2978 512.576 89.3447C512.821 89.3917 513.072 89.3896 513.316 89.3386C513.56 89.2876 513.791 89.1888 513.996 89.0478C514.202 88.9068 514.377 88.7264 514.512 88.5172C516.242 85.852 518.611 83.6617 521.404 82.1453C524.196 80.6289 527.323 79.8345 530.501 79.8345C533.678 79.8345 536.806 80.6289 539.598 82.1453C542.39 83.6617 544.759 85.852 546.49 88.5172C546.664 88.7814 546.901 88.9982 547.179 89.148C547.458 89.2977 547.77 89.3757 548.086 89.375C548.451 89.3789 548.809 89.2708 549.111 89.0652C549.534 88.7874 549.831 88.3545 549.938 87.8598C550.045 87.3651 549.953 86.8481 549.683 86.4203C547.028 82.3492 543.148 79.2281 538.602 77.5086C540.79 76.137 542.593 74.2326 543.843 71.9737C545.094 69.7149 545.75 67.1756 545.751 64.5938C545.76 61.755 544.968 58.9713 543.463 56.5637L553.972 53.0609C554.353 52.9356 554.685 52.693 554.92 52.3679C555.156 52.0427 555.283 51.6515 555.283 51.25C555.283 50.8486 555.156 50.4574 554.92 50.1322C554.685 49.807 554.353 49.5644 553.972 49.4391ZM541.938 64.5938C541.938 67.6272 540.733 70.5363 538.588 72.6813C536.443 74.8262 533.534 76.0313 530.501 76.0313C527.467 76.0313 524.558 74.8262 522.413 72.6813C520.268 70.5363 519.063 67.6272 519.063 64.5938C519.068 62.1531 519.844 59.7763 521.279 57.8027L529.905 60.6859C530.292 60.8132 530.71 60.8132 531.097 60.6859L539.722 57.8027C541.158 59.7763 541.934 62.1531 541.938 64.5938ZM539.722 53.7996H539.699L530.501 56.8734L521.303 53.7996H521.279L513.654 51.25L530.501 45.6266L547.347 51.25L539.722 53.7996Z" fill="black"/>
    <path d="M65.11 20.4925C65.7524 18.6866 65.6512 16.6994 64.8285 14.9682C64.0058 13.237 62.5291 11.9034 60.7232 11.261C58.9173 10.6185 56.9302 10.7198 55.1989 11.5425C53.4677 12.3651 52.1342 13.8419 51.4917 15.6478C51.3632 16.0089 51.3835 16.4064 51.548 16.7526C51.7125 17.0989 52.0079 17.3656 52.3691 17.4941C52.7302 17.6225 53.1277 17.6023 53.4739 17.4378C53.8202 17.2732 54.0869 16.9779 54.2154 16.6167C54.5028 15.8087 55.0234 15.104 55.7114 14.5919C56.3993 14.0797 57.2236 13.7831 58.0802 13.7394C58.9367 13.6958 59.7869 13.9071 60.5234 14.3467C61.2598 14.7863 61.8493 15.4343 62.2174 16.209C62.5855 16.9836 62.7157 17.85 62.5914 18.6986C62.4671 19.5472 62.0939 20.3398 61.5191 20.9763C60.9443 21.6129 60.1937 22.0646 59.3621 22.2745C58.5306 22.4845 57.6555 22.4431 56.8474 22.1556C56.4862 22.0271 56.0888 22.0474 55.7426 22.2119C55.3963 22.3764 55.1296 22.6718 55.0011 23.033L54.0322 25.7566C53.9037 26.1178 53.9239 26.5152 54.0885 26.8615C54.253 27.2077 54.5484 27.4744 54.9095 27.6029C55.2707 27.7314 55.6681 27.7111 56.0144 27.5466C56.3606 27.3821 56.6273 27.0867 56.7558 26.7256L57.2888 25.2275C58.9384 25.4607 60.618 25.1168 62.0433 24.254C63.4685 23.3911 64.5519 22.0623 65.11 20.4925Z" fill="black"/>
    <path d="M52.971 33.0502C53.7231 33.3177 54.5497 32.9249 54.8173 32.1728C55.0849 31.4207 54.6921 30.5941 53.94 30.3265C53.1878 30.0589 52.3612 30.4518 52.0937 31.2039C51.8261 31.956 52.2189 32.7826 52.971 33.0502Z" fill="black"/>
    <path d="M197.061 73.0607C197.646 72.4749 197.646 71.5251 197.061 70.9393L187.515 61.3934C186.929 60.8076 185.979 60.8076 185.393 61.3934C184.808 61.9792 184.808 62.9289 185.393 63.5147L193.879 72L185.393 80.4853C184.808 81.0711 184.808 82.0208 185.393 82.6066C185.979 83.1924 186.929 83.1924 187.515 82.6066L197.061 73.0607ZM86 73.5H196V70.5H86V73.5Z" fill="black"/>
    <path d="M446.061 73.0607C446.646 72.4749 446.646 71.5251 446.061 70.9393L436.515 61.3934C435.929 60.8076 434.979 60.8076 434.393 61.3934C433.808 61.9792 433.808 62.9289 434.393 63.5147L442.879 72L434.393 80.4853C433.808 81.0711 433.808 82.0208 434.393 82.6066C434.979 83.1924 435.929 83.1924 436.515 82.6066L446.061 73.0607ZM336 73.5H445V70.5H336V73.5Z" fill="black"/>
    <path d="M152.334 29.8334H129.667C128.109 29.8334 126.834 31.1084 126.834 32.6667V58.1667L132.501 52.5H152.334C153.892 52.5 155.167 51.225 155.167 49.6667V32.6667C155.167 31.1084 153.892 29.8334 152.334 29.8334ZM152.334 49.6667H131.367L129.667 51.3667V32.6667H152.334V49.6667ZM141.284 34.7917C140.009 34.7917 139.017 35.075 138.309 35.5C137.459 36.0667 137.034 36.9167 137.176 37.9084H140.009C140.009 37.4834 140.151 37.2 140.434 37.0584C140.717 36.9167 141.001 36.775 141.426 36.775C141.851 36.775 142.276 36.9167 142.559 37.2C142.842 37.4834 142.984 37.7667 142.984 38.1917C142.984 38.6167 142.842 38.9 142.701 39.1834C142.417 39.4667 142.134 39.75 141.851 39.8917C141.142 40.3167 140.576 40.7417 140.292 41.025C139.726 41.45 139.584 41.875 139.584 42.5834H142.417C142.417 42.1584 142.559 41.875 142.559 41.5917C142.701 41.3084 142.984 41.1667 143.267 40.8834C143.976 40.6 144.401 40.175 144.826 39.6084C145.251 39.0417 145.392 38.475 145.392 37.9084C145.392 36.9167 144.967 36.0667 144.259 35.5C143.692 35.075 142.559 34.7917 141.284 34.7917ZM139.584 44V46.8334H142.417V44H139.584Z" fill="black"/>
    <path d="M289.98 73.4879C288.837 70.8261 287.18 68.4083 285.1 66.3692C283.025 64.3242 280.568 62.6938 277.864 61.5679C277.84 61.556 277.816 61.55 277.792 61.5381C281.564 58.8574 284.016 54.4909 284.016 49.5645C284.016 41.4033 277.295 34.791 269 34.791C260.705 34.791 253.985 41.4033 253.985 49.5645C253.985 54.4909 256.437 58.8574 260.209 61.544C260.185 61.556 260.16 61.5619 260.136 61.5738C257.424 62.6997 254.99 64.3141 252.901 66.3752C250.822 68.4159 249.165 70.8333 248.021 73.4938C246.896 76.0986 246.29 78.8912 246.235 81.7205C246.233 81.7841 246.244 81.8473 246.268 81.9065C246.291 81.9657 246.327 82.0197 246.372 82.0652C246.417 82.1107 246.471 82.1469 246.531 82.1716C246.59 82.1963 246.654 82.209 246.719 82.209H250.352C250.618 82.209 250.83 82.0005 250.836 81.7443C250.957 77.1455 252.834 72.8386 256.152 69.5741C259.585 66.1965 264.144 64.3379 269 64.3379C273.856 64.3379 278.415 66.1965 281.848 69.5741C285.166 72.8386 287.043 77.1455 287.164 81.7443C287.17 82.0064 287.382 82.209 287.649 82.209H291.281C291.346 82.209 291.41 82.1963 291.47 82.1716C291.529 82.1469 291.583 82.1107 291.628 82.0652C291.673 82.0197 291.709 81.9657 291.732 81.9065C291.756 81.8473 291.767 81.7841 291.766 81.7205C291.705 78.873 291.106 76.103 289.98 73.4879ZM269 59.8105C266.221 59.8105 263.605 58.7442 261.638 56.8082C259.67 54.8722 258.586 52.2987 258.586 49.5645C258.586 46.8302 259.67 44.2567 261.638 42.3207C263.605 40.3847 266.221 39.3184 269 39.3184C271.779 39.3184 274.395 40.3847 276.363 42.3207C278.33 44.2567 279.414 46.8302 279.414 49.5645C279.414 52.2987 278.33 54.8722 276.363 56.8082C274.395 58.7442 271.779 59.8105 269 59.8105Z" fill="black"/>
    <path d="M551.697 29.4249L556.031 36.2042V41.913L559.183 44.7674L562.116 45.8837L565.487 44.7674L568.069 41.913V36.2042L571.418 32.4883L571.79 29.4249V24.4297L569.93 20.5814L565.837 18.3488L562.116 17.6046H559.511L556.031 18.7209L552.069 24.6744L551.697 29.4249Z" fill="#F8E73A" stroke="black"/>
    <path d="M561.851 46.4884H562.277C564.067 46.4864 565.783 45.7746 567.048 44.5091C568.313 43.2437 569.025 41.528 569.027 39.7384V36.2577C570.323 35.2173 571.369 33.8992 572.087 32.4006C572.805 30.902 573.177 29.2612 573.175 27.5995C573.175 21.4728 568.191 16.4884 562.064 16.4884C555.938 16.4884 550.953 21.4728 550.953 27.5995C550.952 29.2612 551.324 30.902 552.042 32.4006C552.76 33.8992 553.805 35.2174 555.101 36.2577V39.7384C555.103 41.528 555.815 43.2437 557.081 44.5091C558.346 45.7746 560.062 46.4864 561.851 46.4884ZM562.277 44.4884H561.851C560.9 44.4872 559.971 44.2007 559.184 43.6659C558.397 43.1311 557.788 42.3726 557.437 41.4884H566.692C566.34 42.3726 565.732 43.1311 564.945 43.6659C564.158 44.2007 563.229 44.4872 562.277 44.4884ZM567.027 39.4884H557.101V36.9884H567.027V39.4884ZM552.953 27.5995C552.953 22.5759 557.04 18.4884 562.064 18.4884C567.088 18.4884 571.175 22.5759 571.175 27.5995C571.172 29.0332 570.832 30.4461 570.183 31.7243C569.534 33.0025 568.593 34.1102 567.437 34.958L567.396 34.9884H556.733L556.691 34.958C555.535 34.1101 554.595 33.0024 553.945 31.7242C553.296 30.446 552.956 29.0331 552.953 27.5995Z" fill="black"/>
</svg>
