<svg width="580" height="105" viewBox="0 0 580 105" fill="none" xmlns="http://www.w3.org/2000/svg">
    <path d="M65.4864 20.3807C66.1253 18.5846 66.0246 16.6083 65.2065 14.8865C64.3883 13.1647 62.9196 11.8385 61.1236 11.1995C59.3275 10.5606 57.3512 10.6613 55.6294 11.4795C53.9076 12.2977 52.5814 13.7664 51.9424 15.5624C51.8146 15.9216 51.8348 16.3169 51.9984 16.6612C52.162 17.0056 52.4558 17.2708 52.815 17.3986C53.1742 17.5264 53.5695 17.5063 53.9138 17.3426C54.2582 17.179 54.5234 16.8853 54.6512 16.5261C54.9371 15.7224 55.4549 15.0216 56.1391 14.5123C56.8232 14.0029 57.6431 13.7079 58.4949 13.6645C59.3468 13.6211 60.1924 13.8312 60.9248 14.2684C61.6572 14.7056 62.2435 15.3501 62.6096 16.1205C62.9757 16.8909 63.1051 17.7526 62.9815 18.5966C62.8579 19.4405 62.4868 20.2289 61.9151 20.8619C61.3435 21.495 60.5969 21.9443 59.7699 22.153C58.9429 22.3618 58.0725 22.3206 57.2689 22.0347C56.9097 21.9069 56.5145 21.9271 56.1701 22.0907C55.8257 22.2544 55.5605 22.5481 55.4327 22.9073L54.469 25.6161C54.3412 25.9753 54.3614 26.3706 54.525 26.7149C54.6887 27.0593 54.9824 27.3245 55.3416 27.4523C55.7008 27.5801 56.0961 27.56 56.4404 27.3963C56.7848 27.2327 57.05 26.939 57.1778 26.5798L57.7078 25.0899C59.3485 25.3218 61.019 24.9798 62.4364 24.1216C63.8539 23.2635 64.9313 21.9419 65.4864 20.3807Z" fill="black"/>
    <path d="M53.4142 32.8699C54.1622 33.1361 54.9843 32.7454 55.2504 31.9974C55.5165 31.2494 55.1258 30.4273 54.3778 30.1612C53.6298 29.895 52.8077 30.2857 52.5416 31.0337C52.2755 31.7817 52.6662 32.6038 53.4142 32.8699Z" fill="black"/>
    <path opacity="0.2" d="M53.311 43.8606L30.4631 51.4766L7.61523 43.8606L30.4631 36.2446L53.311 43.8606Z" fill="black"/>
    <path d="M53.9066 42.0518L31.0587 34.4358C30.671 34.3165 30.2564 34.3165 29.8687 34.4358L7.04462 42.0518H6.99702L6.75902 42.1708H6.73522L6.49722 42.3136C6.49722 42.3374 6.47342 42.3374 6.44962 42.3612L6.25922 42.5278L6.09262 42.7182C6.09262 42.742 6.06882 42.742 6.06882 42.7658L5.92602 42.9799C5.92602 43.0037 5.92602 43.0037 5.90222 43.0275L5.80702 43.2417L5.73562 43.5035V43.5749C5.71215 43.6682 5.70411 43.7647 5.71182 43.8605V62.9004C5.71182 63.4054 5.91242 63.8897 6.26949 64.2468C6.62656 64.6038 7.11084 64.8044 7.61581 64.8044C8.12078 64.8044 8.60507 64.6038 8.96214 64.2468C9.3192 63.8897 9.5198 63.4054 9.5198 62.9004V46.5023L17.5166 49.1679C16.0142 51.5726 15.2222 54.353 15.2318 57.1885C15.2327 59.7672 15.8882 62.3035 17.137 64.5597C18.3858 66.8159 20.187 68.7181 22.3717 70.088C17.8317 71.8055 13.9558 74.9229 11.3048 78.9892C11.0346 79.4165 10.943 79.9328 11.0499 80.4269C11.1567 80.9211 11.4534 81.3535 11.876 81.631C12.0834 81.7684 12.316 81.8632 12.5603 81.9101C12.8046 81.957 13.0558 81.9549 13.2993 81.904C13.5428 81.8531 13.7738 81.7543 13.9789 81.6135C14.1839 81.4727 14.359 81.2925 14.494 81.0836C16.2222 78.4215 18.5884 76.2338 21.3774 74.7192C24.1665 73.2046 27.2899 72.4112 30.4637 72.4112C33.6375 72.4112 36.7609 73.2046 39.55 74.7192C42.339 76.2338 44.7052 78.4215 46.4334 81.0836C46.6072 81.3475 46.844 81.564 47.1224 81.7136C47.4008 81.8632 47.712 81.9411 48.028 81.9404C48.3927 81.9442 48.7499 81.8362 49.0514 81.631C49.474 81.3535 49.7707 80.9211 49.8775 80.4269C49.9844 79.9328 49.8928 79.4165 49.6226 78.9892C46.9716 74.9229 43.0957 71.8055 38.5557 70.088C40.7404 68.7181 42.5416 66.8159 43.7904 64.5597C45.0392 62.3035 45.6947 59.7672 45.6956 57.1885C45.7052 54.353 44.9132 51.5726 43.4108 49.1679L53.9066 45.6693C54.2875 45.5441 54.6192 45.3019 54.8543 44.9771C55.0895 44.6523 55.2161 44.2615 55.2161 43.8605C55.2161 43.4596 55.0895 43.0688 54.8543 42.744C54.6192 42.4192 54.2875 42.177 53.9066 42.0518ZM41.8876 57.1885C41.8876 60.2183 40.6841 63.124 38.5416 65.2664C36.3992 67.4088 33.4935 68.6124 30.4637 68.6124C27.4339 68.6124 24.5282 67.4088 22.3858 65.2664C20.2433 63.124 19.0398 60.2183 19.0398 57.1885C19.0443 54.7507 19.819 52.3768 21.2531 50.4055L29.8687 53.2853C30.2552 53.4124 30.6722 53.4124 31.0587 53.2853L39.6743 50.4055C41.1084 52.3768 41.8831 54.7507 41.8876 57.1885ZM39.6743 46.4071H39.6505L30.4637 49.4773L21.2769 46.4071H21.2531L13.6372 43.8605L30.4637 38.2438L47.2902 43.8605L39.6743 46.4071Z" fill="black"/>
    <path opacity="0.2" d="M555.5 42.3925L532.653 50.0084L509.805 42.3925L532.653 34.7765L555.5 42.3925Z" fill="black"/>
    <path d="M556.096 40.5836L533.248 32.9677C532.86 32.8483 532.446 32.8483 532.058 32.9677L509.234 40.5836H509.186L508.948 40.7026H508.925L508.687 40.8454C508.687 40.8692 508.663 40.8692 508.639 40.893L508.449 41.0596L508.282 41.25C508.282 41.2738 508.258 41.2738 508.258 41.2976L508.115 41.5118C508.115 41.5356 508.115 41.5356 508.092 41.5594L507.996 41.7736L507.925 42.0354V42.1068C507.902 42.2001 507.894 42.2965 507.901 42.3924V61.4323C507.901 61.9373 508.102 62.4216 508.459 62.7786C508.816 63.1357 509.3 63.3363 509.805 63.3363C510.31 63.3363 510.795 63.1357 511.152 62.7786C511.509 62.4216 511.709 61.9373 511.709 61.4323V45.0342L519.706 47.6998C518.204 50.1045 517.412 52.8849 517.421 55.7203C517.422 58.2991 518.078 60.8354 519.326 63.0915C520.575 65.3477 522.376 67.2499 524.561 68.6199C520.021 70.3374 516.145 73.4548 513.494 77.521C513.224 77.9483 513.132 78.4646 513.239 78.9588C513.346 79.4529 513.643 79.8853 514.065 80.1628C514.273 80.3002 514.505 80.3951 514.75 80.442C514.994 80.4888 515.245 80.4868 515.489 80.4358C515.732 80.3849 515.963 80.2862 516.168 80.1454C516.373 80.0045 516.548 79.8244 516.683 79.6154C518.412 76.9534 520.778 74.7656 523.567 73.251C526.356 71.7364 529.479 70.9431 532.653 70.9431C535.827 70.9431 538.95 71.7364 541.739 73.251C544.528 74.7656 546.895 76.9534 548.623 79.6154C548.797 79.8793 549.033 80.0959 549.312 80.2454C549.59 80.395 549.901 80.4729 550.217 80.4722C550.582 80.4761 550.939 80.3681 551.241 80.1628C551.663 79.8853 551.96 79.4529 552.067 78.9588C552.174 78.4646 552.082 77.9483 551.812 77.521C549.161 73.4548 545.285 70.3374 540.745 68.6199C542.93 67.2499 544.731 65.3477 545.98 63.0915C547.229 60.8354 547.884 58.2991 547.885 55.7203C547.895 52.8849 547.103 50.1045 545.6 47.6998L556.096 44.2012C556.477 44.076 556.809 43.8337 557.044 43.5089C557.279 43.1841 557.406 42.7934 557.406 42.3924C557.406 41.9914 557.279 41.6007 557.044 41.2759C556.809 40.9511 556.477 40.7088 556.096 40.5836ZM544.077 55.7203C544.077 58.7502 542.874 61.6559 540.731 63.7983C538.589 65.9407 535.683 67.1443 532.653 67.1443C529.623 67.1443 526.718 65.9407 524.575 63.7983C522.433 61.6559 521.229 58.7502 521.229 55.7203C521.234 53.2826 522.008 50.9086 523.443 48.9374L532.058 51.8172C532.445 51.9443 532.862 51.9443 533.248 51.8172L541.864 48.9374C543.298 50.9086 544.073 53.2826 544.077 55.7203ZM541.864 44.939H541.84L532.653 48.0092L523.466 44.939H523.443L515.827 42.3924L532.653 36.7756L549.48 42.3924L541.864 44.939Z" fill="black"/>
    <path d="M448.061 60.0607C448.646 59.4749 448.646 58.5251 448.061 57.9393L438.515 48.3934C437.929 47.8076 436.979 47.8076 436.393 48.3934C435.808 48.9792 435.808 49.9289 436.393 50.5147L444.879 59L436.393 67.4853C435.808 68.0711 435.808 69.0208 436.393 69.6066C436.979 70.1924 437.929 70.1924 438.515 69.6066L448.061 60.0607ZM338 60.5H447V57.5H338V60.5Z" fill="black"/>
    <path d="M203.061 60.0607C203.646 59.4749 203.646 58.5251 203.061 57.9393L193.515 48.3934C192.929 47.8076 191.979 47.8076 191.393 48.3934C190.808 48.9792 190.808 49.9289 191.393 50.5147L199.879 59L191.393 67.4853C190.808 68.0711 190.808 69.0208 191.393 69.6066C191.979 70.1924 192.929 70.1924 193.515 69.6066L203.061 60.0607ZM93 60.5H202V57.5H93V60.5Z" fill="black"/>
    <path d="M336.939 57.9393C336.354 58.5251 336.354 59.4749 336.939 60.0607L346.485 69.6066C347.071 70.1924 348.021 70.1924 348.607 69.6066C349.192 69.0208 349.192 68.0711 348.607 67.4853L340.121 59L348.607 50.5147C349.192 49.9289 349.192 48.9792 348.607 48.3934C348.021 47.8076 347.071 47.8076 346.485 48.3934L336.939 57.9393ZM437 57.5L338 57.5V60.5L437 60.5V57.5Z" fill="black"/>
    <path d="M91.9393 57.9393C91.3536 58.5251 91.3536 59.4749 91.9393 60.0607L101.485 69.6066C102.071 70.1924 103.021 70.1924 103.607 69.6066C104.192 69.0208 104.192 68.0711 103.607 67.4853L95.1213 59L103.607 50.5147C104.192 49.9289 104.192 48.9792 103.607 48.3934C103.021 47.8076 102.071 47.8076 101.485 48.3934L91.9393 57.9393ZM192 57.5L93 57.5V60.5L192 60.5V57.5Z" fill="black"/>
    <path d="M293.141 72.4879C292.018 69.8261 290.387 67.4083 288.34 65.3692C286.299 63.3242 283.882 61.6938 281.221 60.5679C281.197 60.556 281.174 60.55 281.15 60.5381C284.861 57.8574 287.274 53.4909 287.274 48.5645C287.274 40.4033 280.661 33.791 272.5 33.791C264.339 33.791 257.727 40.4033 257.727 48.5645C257.727 53.4909 260.139 57.8574 263.851 60.544C263.827 60.556 263.803 60.5619 263.779 60.5738C261.11 61.6997 258.716 63.3141 256.66 65.3752C254.615 67.4159 252.985 69.8333 251.859 72.4938C250.753 75.0986 250.156 77.8912 250.102 80.7205C250.1 80.7841 250.111 80.8473 250.135 80.9065C250.158 80.9657 250.193 81.0197 250.237 81.0652C250.281 81.1107 250.334 81.1469 250.393 81.1716C250.452 81.1963 250.515 81.209 250.578 81.209H254.152C254.415 81.209 254.623 81.0005 254.629 80.7443C254.748 76.1455 256.595 71.8386 259.859 68.5741C263.237 65.1965 267.723 63.3379 272.5 63.3379C277.278 63.3379 281.763 65.1965 285.141 68.5741C288.405 71.8386 290.252 76.1455 290.371 80.7443C290.377 81.0064 290.586 81.209 290.848 81.209H294.422C294.486 81.209 294.549 81.1963 294.607 81.1716C294.666 81.1469 294.719 81.1107 294.763 81.0652C294.808 81.0197 294.843 80.9657 294.866 80.9065C294.889 80.8473 294.9 80.7841 294.899 80.7205C294.839 77.873 294.249 75.103 293.141 72.4879ZM272.5 58.8105C269.766 58.8105 267.192 57.7442 265.256 55.8082C263.32 53.8722 262.254 51.2987 262.254 48.5645C262.254 45.8302 263.32 43.2567 265.256 41.3207C267.192 39.3847 269.766 38.3184 272.5 38.3184C275.234 38.3184 277.808 39.3847 279.744 41.3207C281.68 43.2567 282.746 45.8302 282.746 48.5645C282.746 51.2987 281.68 53.8722 279.744 55.8082C277.808 57.7442 275.234 58.8105 272.5 58.8105Z" fill="black"/>
    <path d="M554.697 21.4249L559.031 28.2042V33.913L562.183 36.7674L565.116 37.8837L568.487 36.7674L571.069 33.913V28.2042L574.418 24.4883L574.79 21.4249V16.4297L572.93 12.5814L568.837 10.3488L565.116 9.60461H562.511L559.031 10.7209L555.069 16.6744L554.697 21.4249Z" fill="#F8E73A" stroke="black"/>
    <path d="M564.851 38.4884H565.277C567.067 38.4864 568.783 37.7746 570.048 36.5091C571.313 35.2437 572.025 33.528 572.027 31.7384V28.2577C573.323 27.2173 574.369 25.8992 575.087 24.4006C575.805 22.902 576.177 21.2612 576.175 19.5995C576.175 13.4728 571.191 8.4884 565.064 8.4884C558.938 8.4884 553.953 13.4728 553.953 19.5995C553.952 21.2612 554.324 22.902 555.042 24.4006C555.76 25.8992 556.805 27.2174 558.101 28.2577V31.7384C558.103 33.528 558.815 35.2437 560.081 36.5091C561.346 37.7746 563.062 38.4864 564.851 38.4884ZM565.277 36.4884H564.851C563.9 36.4872 562.971 36.2007 562.184 35.6659C561.397 35.1311 560.788 34.3726 560.437 33.4884H569.692C569.34 34.3726 568.732 35.1311 567.945 35.6659C567.158 36.2007 566.229 36.4872 565.277 36.4884ZM570.027 31.4884H560.101V28.9884H570.027V31.4884ZM555.953 19.5995C555.953 14.5759 560.04 10.4884 565.064 10.4884C570.088 10.4884 574.175 14.5759 574.175 19.5995C574.172 21.0332 573.832 22.4461 573.183 23.7243C572.534 25.0025 571.593 26.1102 570.437 26.958L570.396 26.9884H559.733L559.691 26.958C558.535 26.1101 557.595 25.0024 556.945 23.7242C556.296 22.446 555.956 21.0331 555.953 19.5995Z" fill="black"/>
    <path d="M109.828 24.3H102.188V28.56H108.148V30.06H102.188V36H100.588V22.8H109.828V24.3ZM115.581 36.2C114.634 36.2 113.788 35.9933 113.041 35.58C112.308 35.1667 111.734 34.5733 111.321 33.8C110.908 33.0133 110.701 32.08 110.701 31C110.701 29.92 110.908 28.9933 111.321 28.22C111.734 27.4333 112.301 26.8333 113.021 26.42C113.741 26.0067 114.561 25.8 115.481 25.8C116.414 25.8 117.208 26 117.861 26.4C118.528 26.8 119.034 27.3467 119.381 28.04C119.728 28.72 119.901 29.4867 119.901 30.34C119.901 30.5667 119.894 30.7733 119.881 30.96C119.868 31.1467 119.848 31.3133 119.821 31.46H111.741V30.04H119.121L118.301 30.2C118.301 29.24 118.034 28.5 117.501 27.98C116.981 27.46 116.294 27.2 115.441 27.2C114.788 27.2 114.221 27.3533 113.741 27.66C113.274 27.9533 112.908 28.3867 112.641 28.96C112.388 29.52 112.261 30.2 112.261 31C112.261 31.7867 112.394 32.4667 112.661 33.04C112.928 33.6133 113.301 34.0533 113.781 34.36C114.274 34.6533 114.861 34.8 115.541 34.8C116.274 34.8 116.868 34.66 117.321 34.38C117.788 34.1 118.161 33.72 118.441 33.24L119.701 33.98C119.448 34.4333 119.121 34.8267 118.721 35.16C118.334 35.4933 117.874 35.7533 117.341 35.94C116.821 36.1133 116.234 36.2 115.581 36.2ZM127.124 36.2C126.177 36.2 125.331 35.9933 124.584 35.58C123.851 35.1667 123.277 34.5733 122.864 33.8C122.451 33.0133 122.244 32.08 122.244 31C122.244 29.92 122.451 28.9933 122.864 28.22C123.277 27.4333 123.844 26.8333 124.564 26.42C125.284 26.0067 126.104 25.8 127.024 25.8C127.957 25.8 128.751 26 129.404 26.4C130.071 26.8 130.577 27.3467 130.924 28.04C131.271 28.72 131.444 29.4867 131.444 30.34C131.444 30.5667 131.437 30.7733 131.424 30.96C131.411 31.1467 131.391 31.3133 131.364 31.46H123.284V30.04H130.664L129.844 30.2C129.844 29.24 129.577 28.5 129.044 27.98C128.524 27.46 127.837 27.2 126.984 27.2C126.331 27.2 125.764 27.3533 125.284 27.66C124.817 27.9533 124.451 28.3867 124.184 28.96C123.931 29.52 123.804 30.2 123.804 31C123.804 31.7867 123.937 32.4667 124.204 33.04C124.471 33.6133 124.844 34.0533 125.324 34.36C125.817 34.6533 126.404 34.8 127.084 34.8C127.817 34.8 128.411 34.66 128.864 34.38C129.331 34.1 129.704 33.72 129.984 33.24L131.244 33.98C130.991 34.4333 130.664 34.8267 130.264 35.16C129.877 35.4933 129.417 35.7533 128.884 35.94C128.364 36.1133 127.777 36.2 127.124 36.2ZM138.387 36.2C137.56 36.2 136.8 35.9933 136.107 35.58C135.414 35.1667 134.86 34.5733 134.447 33.8C134.034 33.0133 133.827 32.08 133.827 31C133.827 29.8933 134.047 28.9533 134.487 28.18C134.927 27.4067 135.507 26.82 136.227 26.42C136.947 26.0067 137.72 25.8 138.547 25.8C139.374 25.8 140.087 26.0133 140.687 26.44C141.3 26.8667 141.707 27.4333 141.907 28.14L141.707 28.28V21.4H143.307V36H141.907L141.767 33.58L141.987 33.46C141.894 34.0467 141.667 34.5467 141.307 34.96C140.96 35.36 140.527 35.6667 140.007 35.88C139.5 36.0933 138.96 36.2 138.387 36.2ZM138.547 34.8C139.187 34.8 139.74 34.64 140.207 34.32C140.687 34 141.054 33.5467 141.307 32.96C141.574 32.36 141.707 31.66 141.707 30.86C141.707 30.1 141.574 29.4467 141.307 28.9C141.054 28.3533 140.694 27.9333 140.227 27.64C139.774 27.3467 139.24 27.2 138.627 27.2C137.614 27.2 136.827 27.5467 136.267 28.24C135.707 28.9333 135.427 29.8533 135.427 31C135.427 32.1467 135.7 33.0667 136.247 33.76C136.794 34.4533 137.56 34.8 138.547 34.8ZM151.926 36.2C151.366 36.2 150.846 36.1 150.366 35.9C149.886 35.7 149.473 35.42 149.126 35.06C148.779 34.7 148.519 34.2933 148.346 33.84L148.566 33.56L148.426 36H147.026V21.4H148.626V28.26L148.426 27.96C148.693 27.3333 149.139 26.82 149.766 26.42C150.406 26.0067 151.133 25.8 151.946 25.8C152.773 25.8 153.533 26.0067 154.226 26.42C154.919 26.8333 155.473 27.4267 155.886 28.2C156.299 28.9733 156.506 29.9067 156.506 31C156.506 32.08 156.293 33.0133 155.866 33.8C155.453 34.5733 154.899 35.1667 154.206 35.58C153.513 35.9933 152.753 36.2 151.926 36.2ZM151.766 34.8C152.753 34.8 153.519 34.4533 154.066 33.76C154.626 33.0667 154.906 32.1467 154.906 31C154.906 29.8533 154.633 28.9333 154.086 28.24C153.539 27.5467 152.773 27.2 151.786 27.2C151.159 27.2 150.606 27.36 150.126 27.68C149.659 28 149.293 28.4467 149.026 29.02C148.759 29.5933 148.626 30.2667 148.626 31.04C148.626 31.8 148.753 32.4667 149.006 33.04C149.273 33.6 149.639 34.0333 150.106 34.34C150.586 34.6467 151.139 34.8 151.766 34.8ZM165.405 29.54C165.405 28.7933 165.205 28.22 164.805 27.82C164.405 27.4067 163.838 27.2 163.105 27.2C162.412 27.2 161.825 27.3533 161.345 27.66C160.865 27.9533 160.512 28.4333 160.285 29.1L158.985 28.3C159.252 27.5533 159.745 26.9533 160.465 26.5C161.185 26.0333 162.078 25.8 163.145 25.8C163.865 25.8 164.518 25.9267 165.105 26.18C165.692 26.42 166.152 26.7933 166.485 27.3C166.832 27.7933 167.005 28.4333 167.005 29.22V34.06C167.005 34.54 167.258 34.78 167.765 34.78C168.018 34.78 168.265 34.7467 168.505 34.68L168.425 35.94C168.158 36.0733 167.812 36.14 167.385 36.14C166.998 36.14 166.652 36.0667 166.345 35.92C166.038 35.7733 165.798 35.5533 165.625 35.26C165.452 34.9533 165.365 34.5733 165.365 34.12V33.92L165.765 33.98C165.605 34.5 165.332 34.9267 164.945 35.26C164.558 35.58 164.125 35.82 163.645 35.98C163.165 36.1267 162.692 36.2 162.225 36.2C161.638 36.2 161.092 36.1 160.585 35.9C160.078 35.7 159.672 35.4 159.365 35C159.072 34.5867 158.925 34.08 158.925 33.48C158.925 32.7333 159.172 32.12 159.665 31.64C160.172 31.1467 160.872 30.8133 161.765 30.64L165.725 29.86V31.18L162.505 31.84C161.852 31.9733 161.365 32.16 161.045 32.4C160.725 32.64 160.565 32.9733 160.565 33.4C160.565 33.8133 160.725 34.1533 161.045 34.42C161.378 34.6733 161.845 34.8 162.445 34.8C162.832 34.8 163.198 34.7533 163.545 34.66C163.905 34.5533 164.225 34.4 164.505 34.2C164.785 33.9867 165.005 33.7267 165.165 33.42C165.325 33.1 165.405 32.7267 165.405 32.3V29.54ZM175.033 25.8C175.727 25.8 176.333 25.9067 176.853 26.12C177.387 26.3333 177.847 26.64 178.233 27.04C178.62 27.44 178.933 27.9133 179.173 28.46L177.653 29.18C177.44 28.54 177.113 28.0533 176.673 27.72C176.247 27.3733 175.687 27.2 174.993 27.2C174.327 27.2 173.753 27.3533 173.273 27.66C172.793 27.9533 172.427 28.3867 172.173 28.96C171.92 29.52 171.793 30.2 171.793 31C171.793 31.7867 171.92 32.4667 172.173 33.04C172.427 33.6133 172.793 34.0533 173.273 34.36C173.753 34.6533 174.327 34.8 174.993 34.8C175.513 34.8 175.96 34.72 176.333 34.56C176.72 34.4 177.033 34.1667 177.273 33.86C177.527 33.5533 177.7 33.18 177.793 32.74L179.273 33.26C179.047 33.8733 178.733 34.4 178.333 34.84C177.947 35.28 177.473 35.62 176.913 35.86C176.367 36.0867 175.74 36.2 175.033 36.2C174.1 36.2 173.267 35.9933 172.533 35.58C171.8 35.1667 171.227 34.5733 170.813 33.8C170.4 33.0133 170.193 32.08 170.193 31C170.193 29.92 170.4 28.9933 170.813 28.22C171.227 27.4333 171.8 26.8333 172.533 26.42C173.267 26.0067 174.1 25.8 175.033 25.8ZM190.865 26L186.545 30.32L186.165 30.7L182.885 33.98V31.98L188.845 26H190.865ZM183.685 21.4V36H182.085V21.4H183.685ZM186.685 29.5L191.105 36H189.165L185.345 30.4L186.685 29.5Z" fill="black"/>
    <path d="M110.827 96.62C110.547 97.3667 110.147 98.0133 109.627 98.56C109.107 99.0933 108.494 99.5 107.787 99.78C107.094 100.06 106.334 100.2 105.507 100.2C104.254 100.2 103.167 99.9267 102.247 99.38C101.341 98.82 100.634 98.0333 100.127 97.02C99.634 96.0067 99.3873 94.8 99.3873 93.4C99.3873 92 99.634 90.7933 100.127 89.78C100.634 88.7667 101.341 87.9867 102.247 87.44C103.167 86.88 104.241 86.6 105.467 86.6C106.321 86.6 107.081 86.72 107.747 86.96C108.414 87.1867 108.981 87.5333 109.447 88C109.927 88.4533 110.307 89.0133 110.587 89.68L109.007 90.42C108.714 89.66 108.287 89.0867 107.727 88.7C107.181 88.3 106.467 88.1 105.587 88.1C104.694 88.1 103.907 88.3133 103.227 88.74C102.547 89.1533 102.014 89.7533 101.627 90.54C101.254 91.3267 101.067 92.28 101.067 93.4C101.067 94.5067 101.247 95.46 101.607 96.26C101.967 97.0467 102.481 97.6533 103.147 98.08C103.814 98.4933 104.601 98.7 105.507 98.7C106.387 98.7 107.154 98.48 107.807 98.04C108.461 97.5867 108.934 96.9133 109.227 96.02L110.827 96.62ZM117.738 89.8C118.685 89.8 119.518 90.0067 120.238 90.42C120.972 90.8333 121.545 91.4333 121.958 92.22C122.372 92.9933 122.578 93.92 122.578 95C122.578 96.08 122.372 97.0133 121.958 97.8C121.545 98.5733 120.972 99.1667 120.238 99.58C119.518 99.9933 118.685 100.2 117.738 100.2C116.805 100.2 115.972 99.9933 115.238 99.58C114.505 99.1667 113.932 98.5733 113.518 97.8C113.105 97.0133 112.898 96.08 112.898 95C112.898 93.92 113.105 92.9933 113.518 92.22C113.932 91.4333 114.505 90.8333 115.238 90.42C115.972 90.0067 116.805 89.8 117.738 89.8ZM117.738 91.18C117.058 91.18 116.478 91.3333 115.998 91.64C115.518 91.9467 115.145 92.3867 114.878 92.96C114.625 93.52 114.498 94.2 114.498 95C114.498 95.7867 114.625 96.4667 114.878 97.04C115.145 97.6133 115.518 98.0533 115.998 98.36C116.478 98.6667 117.058 98.82 117.738 98.82C118.418 98.82 118.998 98.6667 119.478 98.36C119.958 98.0533 120.325 97.6133 120.578 97.04C120.845 96.4667 120.978 95.7867 120.978 95C120.978 94.2 120.845 93.52 120.578 92.96C120.325 92.3867 119.958 91.9467 119.478 91.64C118.998 91.3333 118.418 91.18 117.738 91.18ZM131.43 93.54C131.43 92.7933 131.23 92.22 130.83 91.82C130.43 91.4067 129.864 91.2 129.13 91.2C128.437 91.2 127.85 91.3533 127.37 91.66C126.89 91.9533 126.537 92.4333 126.31 93.1L125.01 92.3C125.277 91.5533 125.77 90.9533 126.49 90.5C127.21 90.0333 128.104 89.8 129.17 89.8C129.89 89.8 130.544 89.9267 131.13 90.18C131.717 90.42 132.177 90.7933 132.51 91.3C132.857 91.7933 133.03 92.4333 133.03 93.22V98.06C133.03 98.54 133.284 98.78 133.79 98.78C134.044 98.78 134.29 98.7467 134.53 98.68L134.45 99.94C134.184 100.073 133.837 100.14 133.41 100.14C133.024 100.14 132.677 100.067 132.37 99.92C132.064 99.7733 131.824 99.5533 131.65 99.26C131.477 98.9533 131.39 98.5733 131.39 98.12V97.92L131.79 97.98C131.63 98.5 131.357 98.9267 130.97 99.26C130.584 99.58 130.15 99.82 129.67 99.98C129.19 100.127 128.717 100.2 128.25 100.2C127.664 100.2 127.117 100.1 126.61 99.9C126.104 99.7 125.697 99.4 125.39 99C125.097 98.5867 124.95 98.08 124.95 97.48C124.95 96.7333 125.197 96.12 125.69 95.64C126.197 95.1467 126.897 94.8133 127.79 94.64L131.75 93.86V95.18L128.53 95.84C127.877 95.9733 127.39 96.16 127.07 96.4C126.75 96.64 126.59 96.9733 126.59 97.4C126.59 97.8133 126.75 98.1533 127.07 98.42C127.404 98.6733 127.87 98.8 128.47 98.8C128.857 98.8 129.224 98.7533 129.57 98.66C129.93 98.5533 130.25 98.4 130.53 98.2C130.81 97.9867 131.03 97.7267 131.19 97.42C131.35 97.1 131.43 96.7267 131.43 96.3V93.54ZM141.059 89.8C141.752 89.8 142.359 89.9067 142.879 90.12C143.412 90.3333 143.872 90.64 144.259 91.04C144.645 91.44 144.959 91.9133 145.199 92.46L143.679 93.18C143.465 92.54 143.139 92.0533 142.699 91.72C142.272 91.3733 141.712 91.2 141.019 91.2C140.352 91.2 139.779 91.3533 139.299 91.66C138.819 91.9533 138.452 92.3867 138.199 92.96C137.945 93.52 137.819 94.2 137.819 95C137.819 95.7867 137.945 96.4667 138.199 97.04C138.452 97.6133 138.819 98.0533 139.299 98.36C139.779 98.6533 140.352 98.8 141.019 98.8C141.539 98.8 141.985 98.72 142.359 98.56C142.745 98.4 143.059 98.1667 143.299 97.86C143.552 97.5533 143.725 97.18 143.819 96.74L145.299 97.26C145.072 97.8733 144.759 98.4 144.359 98.84C143.972 99.28 143.499 99.62 142.939 99.86C142.392 100.087 141.765 100.2 141.059 100.2C140.125 100.2 139.292 99.9933 138.559 99.58C137.825 99.1667 137.252 98.5733 136.839 97.8C136.425 97.0133 136.219 96.08 136.219 95C136.219 93.92 136.425 92.9933 136.839 92.22C137.252 91.4333 137.825 90.8333 138.559 90.42C139.292 90.0067 140.125 89.8 141.059 89.8ZM148.11 100V85.4H149.71V91.5C150.057 90.9 150.517 90.4667 151.09 90.2C151.663 89.9333 152.29 89.8 152.97 89.8C153.69 89.8 154.343 89.94 154.93 90.22C155.517 90.4867 155.983 90.9 156.33 91.46C156.69 92.02 156.87 92.7333 156.87 93.6V100H155.27V94.16C155.27 93.0533 155.03 92.2867 154.55 91.86C154.083 91.42 153.503 91.2 152.81 91.2C152.33 91.2 151.85 91.3133 151.37 91.54C150.89 91.7667 150.49 92.14 150.17 92.66C149.863 93.1667 149.71 93.8467 149.71 94.7V100H148.11ZM161.293 88.08C160.933 88.08 160.639 87.9733 160.413 87.76C160.199 87.5333 160.093 87.24 160.093 86.88C160.093 86.52 160.199 86.2333 160.413 86.02C160.639 85.7933 160.933 85.68 161.293 85.68C161.653 85.68 161.939 85.7933 162.153 86.02C162.379 86.2333 162.493 86.52 162.493 86.88C162.493 87.24 162.379 87.5333 162.153 87.76C161.939 87.9733 161.653 88.08 161.293 88.08ZM162.093 90V100H160.493V90H162.093ZM165.805 100V90H167.205L167.345 92.24L167.085 92.02C167.299 91.4867 167.585 91.06 167.945 90.74C168.305 90.4067 168.719 90.1667 169.185 90.02C169.665 89.8733 170.159 89.8 170.665 89.8C171.385 89.8 172.039 89.94 172.625 90.22C173.212 90.4867 173.679 90.9 174.025 91.46C174.385 92.02 174.565 92.7333 174.565 93.6V100H172.965V94.16C172.965 93.0533 172.725 92.2867 172.245 91.86C171.779 91.42 171.199 91.2 170.505 91.2C170.025 91.2 169.545 91.3133 169.065 91.54C168.585 91.7667 168.185 92.1333 167.865 92.64C167.559 93.1467 167.405 93.8267 167.405 94.68V100H165.805ZM186.608 88.16L186.968 89.58C186.955 89.58 186.935 89.58 186.908 89.58C186.881 89.58 186.855 89.58 186.828 89.58C186.175 89.58 185.668 89.7133 185.308 89.98C184.961 90.2333 184.788 90.6467 184.788 91.22L183.808 90.72C183.808 90.2 183.928 89.7467 184.168 89.36C184.408 88.9733 184.735 88.68 185.148 88.48C185.561 88.2667 186.015 88.16 186.508 88.16C186.521 88.16 186.535 88.16 186.548 88.16C186.575 88.16 186.595 88.16 186.608 88.16ZM183.568 98.72C184.515 98.72 185.255 98.94 185.788 99.38C186.321 99.8067 186.588 100.38 186.588 101.1C186.588 101.753 186.368 102.32 185.928 102.8C185.501 103.28 184.921 103.647 184.188 103.9C183.468 104.167 182.655 104.3 181.748 104.3C180.175 104.3 178.995 104.033 178.208 103.5C177.435 102.967 177.048 102.327 177.048 101.58C177.048 101.047 177.221 100.567 177.568 100.14C177.928 99.7267 178.528 99.4933 179.368 99.44L179.228 99.74C178.775 99.62 178.388 99.42 178.068 99.14C177.761 98.8467 177.608 98.4267 177.608 97.88C177.608 97.3333 177.808 96.8667 178.208 96.48C178.621 96.08 179.228 95.8333 180.028 95.74L181.088 96.28H180.888C180.235 96.3467 179.768 96.5133 179.488 96.78C179.221 97.0333 179.088 97.3133 179.088 97.62C179.088 97.9933 179.221 98.2733 179.488 98.46C179.768 98.6333 180.155 98.72 180.648 98.72H183.568ZM181.728 102.96C182.501 102.96 183.135 102.88 183.628 102.72C184.135 102.56 184.508 102.353 184.748 102.1C184.988 101.847 185.108 101.573 185.108 101.28C185.108 100.92 184.961 100.633 184.668 100.42C184.388 100.207 183.875 100.1 183.128 100.1H180.048C179.621 100.1 179.261 100.207 178.968 100.42C178.675 100.647 178.528 100.953 178.528 101.34C178.528 101.833 178.808 102.227 179.368 102.52C179.941 102.813 180.728 102.96 181.728 102.96ZM181.588 89.8C182.388 89.8 183.095 89.9467 183.708 90.24C184.335 90.52 184.821 90.9133 185.168 91.42C185.515 91.9267 185.688 92.5133 185.688 93.18C185.688 93.8333 185.515 94.42 185.168 94.94C184.821 95.4467 184.335 95.8467 183.708 96.14C183.095 96.42 182.388 96.56 181.588 96.56C180.268 96.56 179.255 96.2467 178.548 95.62C177.841 94.98 177.488 94.1667 177.488 93.18C177.488 92.5133 177.661 91.9267 178.008 91.42C178.368 90.9133 178.855 90.52 179.468 90.24C180.081 89.9467 180.788 89.8 181.588 89.8ZM181.588 91.1C180.895 91.1 180.315 91.2933 179.848 91.68C179.381 92.0533 179.148 92.5533 179.148 93.18C179.148 93.7933 179.381 94.2933 179.848 94.68C180.315 95.0667 180.895 95.26 181.588 95.26C182.281 95.26 182.861 95.0667 183.328 94.68C183.795 94.2933 184.028 93.7933 184.028 93.18C184.028 92.5533 183.795 92.0533 183.328 91.68C182.861 91.2933 182.281 91.1 181.588 91.1Z" fill="black"/>
</svg>
